<svg xmlns="http://www.w3.org/2000/svg" data-name="Layer 1" viewBox="0 0 512 512"><path d="M502.52 0H256.83C115.24 0 0 110.73 0 252.32V498c0 5.9 5.21 14 11.12 14h245.71C398.42 512 512 393.94 512 252.32V6.61C512 .7 508.43 0 502.52 0Z" fill="#ff0807"/><path d="M311.92 96.79s22.07-2.09 39.36 9.27c6.27-.3 11.33 2.4 14.61 8.38s9.24 20.35 4.48 29c-1.49 1.79-4.78-5.39-4.78-5.39s-2.39 8.68-6.86 12c.6 18-6.56 30.51-8.65 34.71-.9 2.39-.3 4.49.59 6.89s12.83 44.58 12.23 58.64-7.75 30.82-13.42 36.5c1.19 11.67-4.17 21.55-6.86 26.33s-8.62 22.73-10.12 31.1-2.09 17.36-.29 20.05 9.84 11.07 9.24 15.26-9.24 9-13.42 9-12.83-2.69-14.91-8.38-2.39-15.55-.89-21.23 11.63-47.27 5.67-71.81c-14.61 6.58-39.07 6.29-39.07 6.29s-4.17 21.84-9.24 34.4c-1.79 3-1.49 23.34-1.49 36.2s4.47 32.91 4.47 32.91 6.26 4.49 5.37 10.17-8.05 9-14.32 9S249 411.25 249 403.47s1.19-25.43.59-38.3-.29-21.24-2.38-29.32-8.05-29.32-8.65-45.78a8.44 8.44 0 0 1-4.17-1.5s-9.84 11.37-16.7 18c.89 4.49 3.28 12.57 3.28 14.36s1.79 3.29 4.78 4.49 12.22 6.29 11.93 11.37-11.93 6-22.07 1.5c-2.38-1.2-11-30.21-12.22-34.11s-2.09-6-.6-9.28 5.67-14.06 5.07-20.34-12.23-16.16-20-16.16c-6 0-15.08 9.14-21.77 14.36-8.05 6.29-17.29 15.86-19.68 17.35s-21.17 35.61-24.75 45.48c-1.49 3.89-4.47 23.34-20.27 22.74-7.16-.6-13.72-8.38 6.56-22.44 5.15-11.89 12.3-24.24 12.75-26.71s5.81-33.21 14.76-62.38 22.14-43.08 24.6-45.1c2-1.56 3.13-2.47 1.12-3.59s-23.26-19.3-19.23-57.9c.67-4.49 2.68-3.37 4 7s9.61 34.56 28 42.19c1.79.67 15-9.42 82.3-14.36.45-11.89 2.24-24.46 2.24-24.46a16 16 0 0 1-5.37-10.77c-2.24 3.6-3.57 4.49-6.48 4s-2.68-14.35-2-24.23 12.08-14.14 16.33-14.59a24.1 24.1 0 0 1 11.63-2.47s10.25-10.52 39.32-5.73Z" fill="#fff"/></svg>